<svg id="sib-app" xmlns="http://www.w3.org/2000/svg" width="200" height="70.717" viewBox="0 0 200 70.717">
  <rect id="Rectangle_5473" data-name="Rectangle 5473" width="200" height="70.717" rx="10" transform="translate(0 0)"/>
  <path id="Path_26116" data-name="Path 26116" d="M601.011,455.893a16.541,16.541,0,0,1-2-11.525,65.842,65.842,0,0,1,2.383-8.309,2.263,2.263,0,0,1,2.159-1.736c5.414-.655,10.36.71,15.6,3.279C608.249,436.658,602.622,442.354,601.011,455.893Z" transform="translate(-460.009 -407.345)" fill="#fff"/>
  <path id="Path_26117" data-name="Path 26117" d="M628.147,477.407a13.72,13.72,0,0,1-10.6,2.13,49.153,49.153,0,0,1-8.48-2.483,3.137,3.137,0,0,1-1.682-2.1c-.833-5.381.577-10.358,3.082-15.133-.9,4.787.23,8.863,3.9,12.136a21.671,21.671,0,0,0,12.2,5.315C627.093,477.337,627.621,477.364,628.147,477.407Z" transform="translate(-465.02 -422.627)" fill="#fff"/>
  <path id="Path_26118" data-name="Path 26118" d="M639.376,446.266c1.585-9.715-4.7-16.065-17.846-18.16a34.067,34.067,0,0,1,4.288-1.443c5.508-1.1,10.673.195,15.6,2.6a2.52,2.52,0,0,1,1.048,1.712C643.284,436.428,641.866,441.457,639.376,446.266Z" transform="translate(-473.583 -402.645)" fill="#fff"/>
  <path id="Path_26119" data-name="Path 26119" d="M634.547,466.6c.186-.223.221-.3.256-.3,8.689-.1,13.233-3.539,15.724-12.028.561-1.911.829-3.907,1.289-6.14a16.942,16.942,0,0,1,1.748,11.741,48.949,48.949,0,0,1-2.4,7.886,2.411,2.411,0,0,1-1.432,1.436C644.391,470.154,639.417,468.93,634.547,466.6Z" transform="translate(-481.334 -415.662)" fill="#fff"/>
  <path id="Path_26122" data-name="Path 26122" d="M649.422,397.938c.084,5.269-4.26,8.965-9.885,8.411C639.452,401.558,644.1,397.6,649.422,397.938Z" transform="translate(-484.304 -385.764)" fill="#fff"/>
  <path id="Path_26113" data-name="Path 26113" d="M425.307,462.365c3.9.794,5.6-.538,5.625-4.389.017-2.452.018-2.474,2.427-2.45,4.122.04,3.558-.544,3.559,3.717a26.927,26.927,0,0,1-.405,3.251c.649.033,1.245.089,1.841.09q9.459.012,18.918.013c2.075,0,2.163.3,1.381,2.2-1.137,2.768-3.033,3.836-6.036,3.705-4.463-.195-8.944-.143-13.411,0-1.9.061-3.071-.474-3.556-2.342a8.672,8.672,0,0,0-.568-1.249c-.592.51-1.115.985-1.663,1.429a9.526,9.526,0,0,1-7.246,2.034c-.584-.062-1.179-.73-1.62-1.246a11.588,11.588,0,0,1-1.083-1.94c-2.631,2.932-5.927,3.394-9.484,3.3-4.469-.113-8.943-.048-13.414-.01-1.405.012-1.785-.416-1.095-1.718,2.454-4.631,1.382-4.182,6.657-4.19,3.21,0,6.421.015,9.631,0,2.623-.015,3.882-1.285,3.927-3.906.056-3.322-.6-3.08,3.143-3.09.516,0,1.033.029,1.548,0,.969-.058,1.341.4,1.3,1.337-.044.915.021,1.837-.04,2.75S425.421,461.466,425.307,462.365Z" transform="translate(-333.629 -420.065)" fill="#fff"/>
  <path id="Path_26114" data-name="Path 26114" d="M326.029,481.862h-7.421c-3.888,0-7.777.011-11.665,0a5.564,5.564,0,0,1-5.642-4.733c-.185-1.119.614-1.182,1.4-1.184q4.8-.009,9.607,0c2.916,0,5.835.064,8.748-.02a2.97,2.97,0,0,1,3.186,2.029C324.722,479.135,325.3,480.275,326.029,481.862Z" transform="translate(-269.439 -433.45)" fill="#fff"/>
  <path id="Path_26115" data-name="Path 26115" d="M376.889,448.138c0-2.632.027-5.264-.013-7.9-.014-.937.3-1.3,1.271-1.363,4.77-.328,4.768-.352,4.768,4.4,0,4.177-.037,8.354.022,12.529.017,1.238-.321,1.7-1.64,1.7-4.409.009-4.409.06-4.409-4.393Q376.889,450.626,376.889,448.138Z" transform="translate(-319.025 -409.07)" fill="#fff"/>
  <path id="Path_26123" data-name="Path 26123" d="M355.823,502.635c-2.913,0-5.585.031-8.255-.042-.313-.009-.821-.563-.88-.923-.448-2.716-.183-2.987,2.626-2.987,1.543,0,3.094.105,4.625-.028,1.555-.135,2.078.468,1.895,1.939A19.088,19.088,0,0,0,355.823,502.635Z" transform="translate(-299.111 -448.346)" fill="#fff"/>
  <path id="Path_26124" data-name="Path 26124" d="M479.069,502.74h-2.058c-2.41,0-3.077-.852-2.4-3.2a1.255,1.255,0,0,1,.936-.695q3.6-.086,7.2.009a1.223,1.223,0,0,1,.858.763c.594,2.5.077,3.117-2.479,3.118Z" transform="translate(-382.963 -448.458)" fill="#fff"/>
  <path id="Path_26128" data-name="Path 26128" d="M433.9,498.743c1.635-.39,2.153.245,2.167,1.946.014,1.658-.57,1.977-2.075,1.992-1.568.016-2.215-.308-2.182-2.053C431.839,499.021,432.286,498.378,433.9,498.743Z" transform="translate(-355.054 -448.343)" fill="#fff"/>
  <path id="Path_26129" data-name="Path 26129" d="M333.228,498.721c1.761-.433,2,.422,2.069,1.921.076,1.782-.651,2.025-2.193,2.036-1.586.012-2.041-.471-2.058-2.048C331.026,498.873,331.667,498.326,333.228,498.721Z" transform="translate(-288.966 -448.321)" fill="#fff"/>
  <path id="Path_26130" data-name="Path 26130" d="M139.87,11.465a6.693,6.693,0,0,1,.353,1.108,4.816,4.816,0,0,1,.118,1.035,3.5,3.5,0,0,1-.917,2.535,4.942,4.942,0,0,1-2.734,1.307l-.1.017-.034-.09-.348-.886-.05-.123.135-.028a5.114,5.114,0,0,0,1.6-.541,2.493,2.493,0,0,0,.948-.9,2.46,2.46,0,0,0,.314-1.262,4.489,4.489,0,0,0-.426-1.75l-.05-.112.112-.039.931-.331.1-.039Zm-1.811-2.045.843-.843.043-.043.043.043.85.85.043.043-.043.043-.843.843-.043.043-.043-.043-.85-.85-.043-.043ZM141.58,6.7h1.083v7.892h-1.195V6.7Zm7.107,7.9h-1.262V8.531h1.262V14.6Zm-1.161-7.067a.711.711,0,0,1-.185-.5.806.806,0,0,1,.045-.272.641.641,0,0,1,.14-.227.675.675,0,0,1,.538-.213.692.692,0,0,1,.544.213.7.7,0,0,1-.544,1.2A.694.694,0,0,1,147.526,7.533Zm9.715,2.737v.5a5.279,5.279,0,0,1-.236,1.638,3.649,3.649,0,0,1-.684,1.24,2.894,2.894,0,0,1-1.1.791,3.882,3.882,0,0,1-1.475.269,3.82,3.82,0,0,1-1.453-.269,2.993,2.993,0,0,1-1.116-.791,3.55,3.55,0,0,1-.7-1.24,5.058,5.058,0,0,1-.247-1.638v-.5a5.09,5.09,0,0,1,.247-1.638,3.661,3.661,0,0,1,.7-1.245,2.943,2.943,0,0,1,1.111-.791,3.752,3.752,0,0,1,1.453-.275,4,4,0,0,1,.774.073,3.477,3.477,0,0,1,.7.2,3.336,3.336,0,0,1,.62.334,2.978,2.978,0,0,1,.494.454,3.633,3.633,0,0,1,.684,1.251A5.292,5.292,0,0,1,157.241,10.27Zm-1.3.5v-.5a4.582,4.582,0,0,0-.146-1.217,2.412,2.412,0,0,0-.443-.875,1.828,1.828,0,0,0-.69-.522,2.338,2.338,0,0,0-.937-.179,2.239,2.239,0,0,0-.909.179,1.939,1.939,0,0,0-.7.522,2.479,2.479,0,0,0-.449.875,4.273,4.273,0,0,0-.157,1.217v.5a5.135,5.135,0,0,0,.039.653,3.4,3.4,0,0,0,.121.569,2.822,2.822,0,0,0,.2.482,2.2,2.2,0,0,0,.261.393,1.912,1.912,0,0,0,.7.527,2.145,2.145,0,0,0,.432.135,2.428,2.428,0,0,0,.477.045,2.653,2.653,0,0,0,.5-.045,2,2,0,0,0,.435-.135,1.8,1.8,0,0,0,.69-.527,2.4,2.4,0,0,0,.432-.875A4.606,4.606,0,0,0,155.945,10.769ZM163,13.293a.966.966,0,0,0,.432-.836q0-.062-.006-.123t-.014-.118a.632.632,0,0,0-.025-.107l-.034-.1a.9.9,0,0,0-.3-.342,1.621,1.621,0,0,0-.258-.163,3.116,3.116,0,0,0-.348-.151,8.4,8.4,0,0,0-1-.314q-.129-.034-.255-.07t-.247-.076l-.236-.079q-.115-.039-.227-.081t-.219-.087a3.407,3.407,0,0,1-.892-.51,2.078,2.078,0,0,1-.561-.673,1.873,1.873,0,0,1-.2-.869,2.045,2.045,0,0,1,.053-.468,1.9,1.9,0,0,1,.16-.435,1.812,1.812,0,0,1,.157-.266,2.008,2.008,0,0,1,.2-.238q.109-.112.233-.219a2.844,2.844,0,0,1,.954-.471,4.214,4.214,0,0,1,1.251-.174,4.609,4.609,0,0,1,.715.053,3.486,3.486,0,0,1,.637.16,3.8,3.8,0,0,1,.376.163,2.368,2.368,0,0,1,.314.188,2.9,2.9,0,0,1,.275.222,2.361,2.361,0,0,1,.583.83,2.5,2.5,0,0,1,.151.48,2.414,2.414,0,0,1,.051.491v.112h-1.307V8.907a1.948,1.948,0,0,0-.011-.21,1.629,1.629,0,0,0-.034-.2,1.069,1.069,0,0,0-.062-.185,1.222,1.222,0,0,0-.325-.466,1.493,1.493,0,0,0-.555-.3,2.07,2.07,0,0,0-.37-.084,3.187,3.187,0,0,0-.437-.028,3.565,3.565,0,0,0-.415.022,1.966,1.966,0,0,0-.353.073,1.507,1.507,0,0,0-.516.247,1.169,1.169,0,0,0-.177.168.76.76,0,0,0-.121.2,1.074,1.074,0,0,0-.1.466.846.846,0,0,0,.188.53,1.044,1.044,0,0,0,.109.115,1.3,1.3,0,0,0,.135.107,2.007,2.007,0,0,0,.269.16q.151.076.337.149t.418.143q.227.07.491.137a8.862,8.862,0,0,1,1.3.426,3.3,3.3,0,0,1,.869.544,1.994,1.994,0,0,1,.516.693,2.154,2.154,0,0,1,.168.872,1.949,1.949,0,0,1-.471,1.3,2.122,2.122,0,0,1-.348.323,2.884,2.884,0,0,1-.959.449,4.894,4.894,0,0,1-1.284.157,4.71,4.71,0,0,1-.822-.073,4.482,4.482,0,0,1-.788-.213,2.98,2.98,0,0,1-.684-.365,2.468,2.468,0,0,1-.538-.5,2.21,2.21,0,0,1-.359-.648,2.33,2.33,0,0,1-.129-.788v-.112h1.307v.112a1.325,1.325,0,0,0,.157.667,1.425,1.425,0,0,0,.437.46,1.9,1.9,0,0,0,.639.269,3.3,3.3,0,0,0,.78.09A2.323,2.323,0,0,0,163,13.293Zm5.766-1.083q0-1.705,2.894-2.619l-.028-.157-.022-.112.107-.022.914-.185.112-.022.017.118.466,3.315a1.193,1.193,0,0,0,.151.463.678.678,0,0,0,.306.269,1.154,1.154,0,0,0,.474.087h.112a.187.187,0,0,1,.129.045.231.231,0,0,1,.067.135q.017.09.022.154t.006.182v.163q0,.135-.006.208t-.022.174a.257.257,0,0,1-.067.149.18.18,0,0,1-.129.048h-.135a1.722,1.722,0,0,1-1.879-1.183,2.5,2.5,0,0,1-.684.373,2.266,2.266,0,0,1-.757.126,1.975,1.975,0,0,1-1.84-.869A1.6,1.6,0,0,1,168.768,12.211Zm3.068-1.464a5.5,5.5,0,0,0-1.388.71.951.951,0,0,0-.457.687.664.664,0,0,0,.042.25.418.418,0,0,0,.137.177.654.654,0,0,0,.247.109,1.53,1.53,0,0,0,1.167-.21.862.862,0,0,0,.376-.954l-.118-.746ZM176.395,7.8l.816-.816.042-.042.042.042.822.822.042.042-.042.042L177.3,8.7l-.042.042-.042-.042-.822-.822-.042-.042Zm2.839,4.054q-.157-.056-.4-.151t-.578-.236a5.024,5.024,0,0,0-1.453-.432,1.165,1.165,0,0,0-.959.482l-.157.2-.056.073-.079-.039-.864-.426-.112-.056.067-.1.09-.157a2.539,2.539,0,0,1,.889-.911,2.353,2.353,0,0,1,1.186-.311,4.151,4.151,0,0,1,1.756.494,7.492,7.492,0,0,0,2.664.881l.107.006v.112l-.011.97v.107l-.1.006a2.147,2.147,0,0,0-.471.1,4.64,4.64,0,0,0-.583.238q.084.639,1.442.639h.247a.177.177,0,0,1,.126.045.255.255,0,0,1,.067.135,1.252,1.252,0,0,1,.025.154q.006.065.006.182v.135q0,.067,0,.137l-.006.137a.716.716,0,0,1-.017.129.472.472,0,0,1-.036.107.167.167,0,0,1-.064.07.2.2,0,0,1-.1.025h-.331a3.015,3.015,0,0,1-1.587-.362,1.56,1.56,0,0,1-.729-1.085l-.157.081-.163.087a9.652,9.652,0,0,1-4.431,1.279h-.269a.367.367,0,0,1-.328-.165.787.787,0,0,1-.109-.44v-.107a.641.641,0,0,1,.112-.4.383.383,0,0,1,.325-.149h.337a10.394,10.394,0,0,0,4.527-1.4Zm8.257.707a1.385,1.385,0,0,0,.07.351.648.648,0,0,0,.149.244.574.574,0,0,0,.236.14,1.069,1.069,0,0,0,.325.045.577.577,0,0,0,.5-.238,1.328,1.328,0,0,0,.163-.766q0-.438-.028-.718l-.028-.342-.011-.112.112-.011.92-.107.118-.017.011.118.09,1.06a1.547,1.547,0,0,0,.28.864.8.8,0,0,0,.645.275h.1a.205.205,0,0,1,.1.022.148.148,0,0,1,.065.07q.022.048.036.087a.472.472,0,0,1,.02.118q.006.079.006.121v.272q0,.135,0,.2a1.165,1.165,0,0,1-.022.171.266.266,0,0,1-.067.146.185.185,0,0,1-.132.045h-.09a1.47,1.47,0,0,1-1.413-.667,1.536,1.536,0,0,1-1.369.667,1.5,1.5,0,0,1-1.38-.7,1.889,1.889,0,0,1-1.526.7,1.616,1.616,0,0,1-1.492-.684,2.129,2.129,0,0,1-1.8.684h-.314a.367.367,0,0,1-.328-.165.787.787,0,0,1-.109-.44v-.107a.64.64,0,0,1,.112-.4.383.383,0,0,1,.325-.149h.325a1.629,1.629,0,0,0,.847-.182.8.8,0,0,0,.37-.552,1.8,1.8,0,0,0,.028-.37q0-.118-.006-.244t-.017-.266l-.034-.342-.006-.107.107-.011.926-.112.112-.011.011.118.09,1.3a1.027,1.027,0,0,0,.115.443.6.6,0,0,0,.283.258,1.127,1.127,0,0,0,.466.084.818.818,0,0,0,.9-.735,2.241,2.241,0,0,0,.022-.37q0-.123-.006-.252t-.017-.258l-.034-.342-.006-.107.107-.011.926-.112.118-.011.006.118Zm4,2.042h-.426a.367.367,0,0,1-.328-.165.788.788,0,0,1-.109-.44v-.107a.64.64,0,0,1,.112-.4.383.383,0,0,1,.325-.149h.426a1.862,1.862,0,0,0,.881-.163q.421-.247.421-1.077a6.023,6.023,0,0,0-.2-1.458l-.028-.107.107-.028.92-.23.1-.028.034.1A5.87,5.87,0,0,1,194,12.087a2.417,2.417,0,0,1-.83,2.058A2.726,2.726,0,0,1,191.49,14.6Zm.3-6.022.816-.816.042-.042.042.042.822.822.042.042-.042.042-.816.816-.042.042-.042-.042-.822-.822-.042-.042ZM202.405,14.6a6.147,6.147,0,0,1-3.27-.707,2.365,2.365,0,0,1-1.111-2.131,3.62,3.62,0,0,1,.314-1.486l.051-.1,1.083.415-.039.1a2.485,2.485,0,0,0-.179.92,1.4,1.4,0,0,0,.331.954,2.064,2.064,0,0,0,1.026.578,6.467,6.467,0,0,0,1.767.2q.718,0,1.31-.048a8.645,8.645,0,0,0,1.029-.137,3.77,3.77,0,0,0,.735-.219,1.227,1.227,0,0,0,.449-.292.871.871,0,0,0,.163-.606q0-.185-.006-.308l-.034-.46-.006-.107.107-.011.92-.112.118-.011.011.118.09,1.206a1.31,1.31,0,0,0,.252.724.851.851,0,0,0,.7.264h.073a.189.189,0,0,1,.1.022.193.193,0,0,1,.067.067.69.69,0,0,1,.034.09.384.384,0,0,1,.022.118q.006.079.006.121v.266q0,.135-.006.208a.82.82,0,0,1-.022.174.242.242,0,0,1-.067.146.187.187,0,0,1-.129.045h-.073a1.844,1.844,0,0,1-1.711-.92q-1.032.92-4.078.92Zm.414-5.327.816-.816.042-.042.042.042.822.822.042.042-.042.042-.816.816-.042.042-.042-.042-.822-.822-.042-.042Zm-1.824,0,.816-.816.042-.042.042.042.822.822.042.042-.042.042-.816.816-.042.042-.042-.042-.822-.822-.042-.042Zm9.757,3.24A2.222,2.222,0,0,1,209.3,12.1a1.52,1.52,0,0,1-.51-1.22,2.6,2.6,0,0,1,.045-.488,2.7,2.7,0,0,1,.667-1.425,1.673,1.673,0,0,1,1.245-.516,1.6,1.6,0,0,1,.886.247,3.123,3.123,0,0,1,1.184,2.429,6.671,6.671,0,0,1,.039.7,4.162,4.162,0,0,1-.2,1.377,1.794,1.794,0,0,1-.6.867,4.188,4.188,0,0,1-2.434.527H208.21a.367.367,0,0,1-.328-.165.787.787,0,0,1-.109-.44v-.107a.64.64,0,0,1,.112-.4.383.383,0,0,1,.325-.149h1.475q1.98,0,2.07-.954a2.887,2.887,0,0,1-.325.07q-.163.025-.331.039T210.751,12.513Zm-.808-1.784a.505.505,0,0,0,.208.443,1.173,1.173,0,0,0,.673.14,3.212,3.212,0,0,0,.83-.112,3.342,3.342,0,0,0-.264-.97q-.247-.544-.679-.544-.5,0-.707.673A1.236,1.236,0,0,0,209.944,10.73Zm-.2-3.908.816-.816.042-.042.042.042.822.822.042.042-.042.042-.816.816-.042.042-.042-.042-.822-.822-.042-.042Zm6.822,7.172a1.929,1.929,0,0,1,0,.208,1.49,1.49,0,0,1-.022.2.294.294,0,0,1-.067.146.172.172,0,0,1-.135.056h-.118q-2.176,0-2.176-2.546V6.7h1.2v5.34q0,1.3.993,1.3h.1a.211.211,0,0,1,.1.022.155.155,0,0,1,.062.067l.039.09a.62.62,0,0,1,.017.118l.006.118a.623.623,0,0,1,.006.129Zm.123.606h-.426a.367.367,0,0,1-.328-.165.788.788,0,0,1-.109-.44v-.107a.64.64,0,0,1,.112-.4.383.383,0,0,1,.325-.149h.426a4.937,4.937,0,0,0,.726-.045,1.476,1.476,0,0,0,.435-.118q.421-.247.421-1.077a6.022,6.022,0,0,0-.2-1.458l-.028-.107.107-.028.92-.23.1-.028.034.1a5.87,5.87,0,0,1,.275,1.733,2.417,2.417,0,0,1-.83,2.058A3.288,3.288,0,0,1,216.686,14.6Zm1.272,1.735.816-.816.042-.042.042.042.822.822.042.042-.042.042-.816.816-.042.042-.042-.042-.822-.822-.042-.042Zm-1.824,0,.816-.816.042-.042.042.042.822.822.042.042-.042.042-.816.816-.042.042-.042-.042-.822-.822-.042-.042Zm7.805-4.87a6.693,6.693,0,0,1,.353,1.108,4.816,4.816,0,0,1,.118,1.035,3.5,3.5,0,0,1-.917,2.535,4.941,4.941,0,0,1-2.734,1.307l-.1.017-.034-.09-.348-.886-.05-.123.135-.028a5.115,5.115,0,0,0,1.6-.541,2.493,2.493,0,0,0,.948-.9,2.46,2.46,0,0,0,.314-1.262,4.489,4.489,0,0,0-.426-1.75l-.051-.112.112-.039.931-.331.1-.039Zm1.453,1.728a6.033,6.033,0,0,0,1.217.146q1.963,0,1.963-.9a1.3,1.3,0,0,0-.241-.693,3.979,3.979,0,0,0-.754-.813,10.8,10.8,0,0,0-1.282-.923l-.1-.062.062-.1L226.827,9l.056-.09.09.056q2.833,1.688,2.833,3.455a1.976,1.976,0,0,1-.359,1.209,2.1,2.1,0,0,1-1.052.721,5.47,5.47,0,0,1-1.714.241,6.209,6.209,0,0,1-1.335-.135l-.09-.022V13.164Z" transform="translate(-104.327 8.763)" fill="#fff"/>
</svg>
